<svg width="256" height="256" viewBox="0 0 256 256" fill="none" xmlns="http://www.w3.org/2000/svg">
  <defs>
    <linearGradient id="bg" x1="28" y1="20" x2="224" y2="232" gradientUnits="userSpaceOnUse">
      <stop stop-color="#F8FBFF"/>
      <stop offset="0.55" stop-color="#EEF4FF"/>
      <stop offset="1" stop-color="#DDE8FF"/>
    </linearGradient>
    <linearGradient id="a" x1="72" y1="198" x2="172" y2="68" gradientUnits="userSpaceOnUse">
      <stop stop-color="#1450D2"/>
      <stop offset="0.48" stop-color="#2B7CFF"/>
      <stop offset="1" stop-color="#70C8FF"/>
    </linearGradient>
    <linearGradient id="bar" x1="95" y1="152" x2="161" y2="152" gradientUnits="userSpaceOnUse">
      <stop stop-color="#8ED2FF"/>
      <stop offset="1" stop-color="#D8F0FF"/>
    </linearGradient>
  </defs>

  <rect x="16" y="16" width="224" height="224" rx="58" fill="url(#bg)"/>
  <rect x="16" y="16" width="224" height="224" rx="58" stroke="#C7DBFB" stroke-width="4"/>

  <g opacity="0.24">
    <path d="M52 84H204" stroke="#B4C8E6" stroke-width="5" stroke-linecap="round"/>
    <path d="M52 120H204" stroke="#B7CCEA" stroke-width="5" stroke-linecap="round"/>
    <path d="M52 156H204" stroke="#BDCFEC" stroke-width="5" stroke-linecap="round"/>
    <path d="M84 52V204" stroke="#B5CAE7" stroke-width="5" stroke-linecap="round"/>
    <path d="M128 52V204" stroke="#BACEEA" stroke-width="5" stroke-linecap="round"/>
    <path d="M172 52V204" stroke="#C0D3EE" stroke-width="5" stroke-linecap="round"/>
  </g>

  <path d="M79 194L123 76" stroke="url(#a)" stroke-width="28" stroke-linecap="round" stroke-linejoin="round"/>
  <path d="M133 76L177 194" stroke="url(#a)" stroke-width="28" stroke-linecap="round" stroke-linejoin="round"/>
  <path d="M99 152H157" stroke="url(#bar)" stroke-width="24" stroke-linecap="round"/>

  <circle cx="79" cy="194" r="8" fill="#1E66F5"/>
  <circle cx="177" cy="194" r="8" fill="#47A8FF"/>
  <circle cx="128" cy="76" r="8" fill="#EDF7FF" stroke="#72C6FF" stroke-width="4"/>
  <circle cx="128" cy="152" r="6" fill="#1755D4" stroke="#F8FCFF" stroke-width="3"/>
</svg>
